<svg xmlns="http://www.w3.org/2000/svg" fill="#000" height="40" viewBox="0 96 960 960" width="40"><path d="M230.623 822.768h245.884v-17.072q0-18.803-9.935-33.938-9.935-15.135-25.223-20.364-29.186-11.103-48.536-15.038-19.349-3.935-37.581-3.935-19.565 0-41 4.717t-47.305 14.051q-16.199 6.177-26.251 20.646-10.053 14.469-10.053 33.861v17.072Zm364.652-64.667h111.798q12.642 0 20.907-8.271 8.266-8.272 8.266-20.922t-8.266-20.902q-8.265-8.252-20.907-8.252H595.275q-12.642 0-20.908 8.271-8.265 8.271-8.265 20.922 0 12.65 8.265 20.902 8.266 8.252 20.908 8.252Zm-239.917-58.347q24.743 0 41.562-16.945 16.819-16.944 16.819-41.688 0-24.744-16.686-41.562-16.685-16.819-41.664-16.819-24.461 0-41.563 16.685-17.101 16.686-17.101 41.665 0 24.461 16.944 41.562 16.945 17.102 41.689 17.102Zm240.352-58.725h111.595q11.98 0 20.461-8.827 8.48-8.826 8.48-21.494 0-11.824-8.478-20.309-8.478-8.485-20.463-8.485H595.71q-12.758 0-21.183 8.519-8.425 8.52-8.425 20.903 0 12.157 8.389 20.925t21.219 8.768ZM152.319 1001.85q-39.434 0-67.934-28.496-28.5-28.5-28.5-67.934V447.116q0-39.589 28.5-68.2 28.5-28.612 67.934-28.612h203.566V235.029q0-36.401 24.698-61.331t62.024-24.93h75.351q36.674 0 61.604 24.93t24.93 61.331v115.275h203.189q39.589 0 68.201 28.612 28.611 28.611 28.611 68.2V905.42q0 39.434-28.611 67.934-28.612 28.496-68.201 28.496H152.319Zm0-96.43h655.362V447.116H601.087v20q-7.493 30.261-30.797 46.058-23.305 15.797-52.332 15.797h-75.539q-29.404 0-53.18-16.152-23.775-16.152-30.094-45.703v-20H152.319V905.42Zm295.478-467.796h64.782V240.681h-64.782v196.943ZM480 675.768Z"/></svg>