<svg xmlns="http://www.w3.org/2000/svg" fill="#000" height="40" viewBox="0 96 960 960" width="40"><path d="M441.841 914.536H231.319q-20.218 0-34.167-13.674-13.949-13.673-13.949-34.442V592.797h-81.187q-16.75 0-22.831-15.522-6.082-15.522 6.758-26.739l362.245-327.043q13.608-12.174 32.029-12.174 18.421 0 31.595 12.174l142.87 126.494V293.9q0-20.769 13.786-34.443 13.787-13.673 33.765-13.673h26.448q20.218 0 34.167 13.673 13.949 13.674 13.949 34.455v167.9l97.948 88.561q12.152 11.38 6.225 26.902-5.928 15.522-22.696 15.522h-81.477V866.42q0 20.769-13.949 34.442-13.949 13.674-34.167 13.674H518.159V670.783h-76.318v243.753Zm-169.74-88.898h80.842V628.87q0-19.978 13.786-33.764 13.786-13.787 33.764-13.787h159.014q19.978 0 33.764 13.787 13.786 13.786 13.786 33.764v196.768h80.842V502.401L480 314.652 272.101 502.401v323.237Zm118.29-322.377h179.218q0-36.319-26.652-60.116-26.651-23.797-62.814-23.797t-62.958 23.692q-26.794 23.692-26.794 60.221Zm10.102 78.058h159.014-159.014Z"/></svg>