<svg xmlns="http://www.w3.org/2000/svg" fill="#000" height="40" viewBox="0 96 960 960" width="40"><path d="M564.145 695.506q18.165 0 31.234-12.669 13.07-12.67 13.07-31.181 0-18.51-12.922-31.17-12.923-12.66-31.777-12.66-18.451 0-30.999 12.669-12.548 12.67-12.548 31.181 0 18.51 12.701 31.17 12.7 12.66 31.241 12.66Zm-1.221-122.042q11.454 0 19.772-7.674 8.318-7.674 12.405-20.21 2.766-11.971 9.844-22.487 7.078-10.516 22.04-25.861 28.638-28.802 39.42-47.805 10.783-19.004 10.783-44.403 0-47.829-31.873-77.267-31.872-29.438-85.235-29.438-34.529 0-61.74 15.59-27.21 15.59-43.035 42.715-5.537 10.246-1.157 20.783 4.379 10.538 16.706 15.985 9.856 4.275 19.975.486 10.12-3.788 17.489-14.182 9.721-13.566 22.751-20.399 13.03-6.833 28.844-6.833 27.353 0 44.14 14.695 16.788 14.696 16.788 39.349 0 16.971-8.783 31.344-8.782 14.372-29.782 32.207-26.102 23.767-35.094 38.644-8.993 14.877-11.558 36.563-1.566 11.954 6.69 20.076 8.255 8.122 20.61 8.122ZM299.333 857.58q-39.068 0-67.751-28.896-28.684-28.896-28.684-67.539V236.043q0-38.798 28.684-67.805 28.683-29.006 67.751-29.006h525.102q38.798 0 67.522 29.006 28.724 29.007 28.724 67.805v525.102q0 38.643-28.724 67.539t-67.522 28.896H299.333Zm0-96.435h525.102V236.043H299.333v525.102ZM136.232 1020.49q-39.223 0-67.735-28.722-28.511-28.724-28.511-67.522V350.593q0-19.595 13.779-33.739 13.779-14.145 34.115-14.145 20.337 0 34.345 14.145 14.007 14.144 14.007 33.739v573.653h572.986q19.878 0 34.214 13.791 14.337 13.791 14.337 34.326 0 20.536-14.337 34.337-14.336 13.79-34.214 13.79H136.232Zm163.101-784.447v525.102-525.102Z"/></svg>