<svg xmlns="http://www.w3.org/2000/svg" fill="#000" height="40" viewBox="0 96 960 960" width="40"><path d="M480.013 563.188q-76.721 0-126.324-49.885-49.602-49.885-49.602-126.233 0-76.349 49.512-125.934 49.513-49.585 126.234-49.585 76.722 0 126.589 49.521 49.868 49.521 49.868 126.28 0 76.066-49.778 125.951-49.777 49.885-126.499 49.885Zm249.204 375.594H230.783q-40.418 0-68.426-27.811-28.009-27.811-28.009-68.624V813.06q0-43.396 21.761-76.07 21.762-32.673 56.833-49.729 67.624-32.667 133.669-48.479 66.046-15.811 133.117-15.811 68.156 0 133.692 16.333 65.536 16.334 132.918 47.898 36.039 16.618 57.865 49.249 21.826 32.63 21.826 76.609v29.287q0 40.813-28.119 68.624-28.12 27.811-68.693 27.811Zm-498.434-96.435h498.434v-27.101q0-13.906-7.493-25.891-7.495-11.985-19-17.051-58.464-28.348-112.041-40.435-53.578-12.087-111.152-12.087-56.444 0-110.828 12.203t-111.266 40.26q-12.1 4.968-19.377 16.894-7.277 11.927-7.277 26.107v27.101Zm249.134-375.593q33.634 0 56.598-22.899 22.963-22.899 22.963-56.56 0-33.815-22.88-56.845-22.881-23.03-56.515-23.03t-56.598 23.082q-22.963 23.081-22.963 56.6 0 33.752 22.88 56.702 22.881 22.95 56.515 22.95Zm.083-79.479Zm0 455.072Z"/></svg>